<svg xmlns="http://www.w3.org/2000/svg" width="32" height="32" viewBox="0 0 32 32" fill="none">
<path d="M18.3944 29.8567L16.8088 31.4834C16.1375 32.1722 15.0519 32.1722 14.3877 31.4834L0.503515 17.2457C-0.167839 16.5569 -0.167839 15.4431 0.503515 14.7616L14.3877 0.5166C15.059 -0.172203 16.1446 -0.172203 16.8088 0.5166L18.3944 2.14334C19.0729 2.83947 19.0586 3.97527 18.3658 4.65674L9.75962 13.0689L30.2859 13.0689C31.2358 13.0689 32 13.853 32 14.8276V17.1724C32 18.147 31.2358 18.9311 30.2859 18.9311L9.75962 18.9311L18.3658 27.3433C19.0657 28.0247 19.08 29.1605 18.3944 29.8567Z" fill="#F4EAED"/>
</svg>