<svg xmlns="http://www.w3.org/2000/svg" width="20" height="21" viewBox="0 0 20 21" fill="none">
<path d="M3.0386 17.57C2.0835 16.6475 1.32168 15.544 0.797586 14.324C0.273496 13.104 -0.0023665 11.7918 -0.0139047 10.464C-0.0254428 9.13618 0.227574 7.81938 0.730383 6.59042C1.23319 5.36145 1.97572 4.24493 2.91465 3.30601C3.85358 2.36708 4.9701 1.62455 6.19906 1.12174C7.42802 0.618932 8.74482 0.365915 10.0726 0.377453C11.4004 0.388991 12.7126 0.664853 13.9326 1.18894C15.1527 1.71303 16.2561 2.47486 17.1786 3.42996C19.0002 5.31598 20.0081 7.842 19.9853 10.464C19.9626 13.0859 18.9109 15.5941 17.0568 17.4481C15.2027 19.3022 12.6946 20.3539 10.0726 20.3767C7.45064 20.3995 4.92462 19.3915 3.0386 17.57ZM4.4486 16.16C5.94973 17.6611 7.98569 18.5044 10.1086 18.5044C12.2315 18.5044 14.2675 17.6611 15.7686 16.16C17.2697 14.6588 18.113 12.6229 18.113 10.5C18.113 8.37705 17.2697 6.34108 15.7686 4.83996C14.2675 3.33883 12.2315 2.49551 10.1086 2.49551C7.98569 2.49551 5.94973 3.33883 4.4486 4.83996C2.94747 6.34108 2.10415 8.37705 2.10415 10.5C2.10415 12.6229 2.94747 14.6588 4.4486 16.16ZM14.3486 7.66996L11.5186 10.5L14.3486 13.33L12.9386 14.74L10.1086 11.91L7.2786 14.74L5.8686 13.33L8.6986 10.5L5.8686 7.66996L7.2786 6.25996L10.1086 9.08996L12.9386 6.25996L14.3486 7.66996Z" fill="black" fill-opacity="0.69"/>
</svg>