<svg xmlns="http://www.w3.org/2000/svg" width="24" height="25" viewBox="0 0 24 25" fill="none">
<path d="M1.44202 20.5001C1.44202 19.0856 2.00392 17.729 3.00411 16.7288C4.00431 15.7287 5.36086 15.1667 6.77535 15.1667H17.442C18.8565 15.1667 20.2131 15.7287 21.2133 16.7288C22.2134 17.729 22.7754 19.0856 22.7754 20.5001C22.7754 21.2073 22.4944 21.8856 21.9943 22.3857C21.4942 22.8858 20.8159 23.1667 20.1087 23.1667H4.10868C3.40144 23.1667 2.72316 22.8858 2.22307 22.3857C1.72297 21.8856 1.44202 21.2073 1.44202 20.5001Z" stroke="black" stroke-opacity="0.49" stroke-width="2" stroke-linejoin="round"/>
<path d="M12.1086 9.83337C14.3178 9.83337 16.1086 8.04251 16.1086 5.83337C16.1086 3.62424 14.3178 1.83337 12.1086 1.83337C9.8995 1.83337 8.10864 3.62424 8.10864 5.83337C8.10864 8.04251 9.8995 9.83337 12.1086 9.83337Z" stroke="black" stroke-opacity="0.49" stroke-width="2"/>
</svg>