<svg xmlns="http://www.w3.org/2000/svg" width="33" height="32" viewBox="0 0 33 32" fill="none">
<path d="M14.1056 2.14335L15.6912 0.516602C16.3625 -0.172201 17.4481 -0.172201 18.1123 0.516602L31.9965 14.7543C32.6678 15.4431 32.6678 16.5569 31.9965 17.2384L18.1123 31.4834C17.441 32.1722 16.3554 32.1722 15.6912 31.4834L14.1056 29.8567C13.4271 29.1605 13.4414 28.0247 14.1342 27.3433L22.7404 18.9311H2.21409C1.2642 18.9311 0.5 18.147 0.5 17.1724V14.8276C0.5 13.853 1.2642 13.0689 2.21409 13.0689H22.7404L14.1342 4.65674C13.4343 3.97527 13.42 2.83948 14.1056 2.14335Z" fill="#141CDD"/>
</svg>