<svg xmlns="http://www.w3.org/2000/svg" width="32" height="32" viewBox="0 0 32 32" fill="none">
<path d="M13.6056 2.14335L15.1912 0.516602C15.8625 -0.172201 16.9481 -0.172201 17.6123 0.516602L31.4965 14.7543C32.1678 15.4431 32.1678 16.5569 31.4965 17.2384L17.6123 31.4834C16.941 32.1722 15.8554 32.1722 15.1912 31.4834L13.6056 29.8567C12.9271 29.1605 12.9414 28.0247 13.6342 27.3433L22.2404 18.9311H1.71409C0.7642 18.9311 0 18.147 0 17.1724V14.8276C0 13.853 0.7642 13.0689 1.71409 13.0689H22.2404L13.6342 4.65674C12.9343 3.97527 12.92 2.83948 13.6056 2.14335Z" fill="#F01053"/>
</svg>