<svg xmlns="http://www.w3.org/2000/svg" width="32" height="32" viewBox="0 0 32 32" fill="none">
<path d="M16.1086 29.3333C17.8599 29.3356 19.5944 28.9917 21.2123 28.3215C22.8303 27.6513 24.2999 26.6679 25.5366 25.428C26.7766 24.1913 27.7599 22.7217 28.4302 21.1037C29.1004 19.4857 29.4442 17.7513 29.4419 16C29.4442 14.2487 29.1003 12.5142 28.4301 10.8963C27.7599 9.27829 26.7766 7.80871 25.5366 6.57197C24.2999 5.33199 22.8303 4.34864 21.2123 3.67843C19.5944 3.00822 17.8599 2.66437 16.1086 2.66664C14.3573 2.6644 12.6229 3.00827 11.0049 3.67848C9.38693 4.34869 7.91735 5.33202 6.68061 6.57197C5.44066 7.80871 4.45733 9.27829 3.78712 10.8963C3.11691 12.5142 2.77305 14.2487 2.77528 16C2.77301 17.7513 3.11686 19.4857 3.78707 21.1037C4.45728 22.7217 5.44063 24.1913 6.68061 25.428C7.91735 26.6679 9.38693 27.6513 11.0049 28.3215C12.6229 28.9917 14.3573 29.3355 16.1086 29.3333Z" stroke="black" stroke-opacity="0.53" stroke-width="4" stroke-linejoin="round"/>
<path d="M16.1086 19.0833V16.4166C16.8998 16.4166 17.6731 16.182 18.3309 15.7425C18.9887 15.303 19.5014 14.6783 19.8042 13.9474C20.1069 13.2165 20.1861 12.4122 20.0318 11.6363C19.8774 10.8603 19.4965 10.1476 18.9371 9.5882C18.3777 9.02879 17.6649 8.64783 16.889 8.49349C16.1131 8.33915 15.3088 8.41836 14.5779 8.72111C13.847 9.02386 13.2223 9.53655 12.7828 10.1943C12.3432 10.8521 12.1086 11.6255 12.1086 12.4166" stroke="black" stroke-opacity="0.53" stroke-width="4" stroke-linecap="round" stroke-linejoin="round"/>
<path fill-rule="evenodd" clip-rule="evenodd" d="M16.1086 25.0833C16.5506 25.0833 16.9745 24.9077 17.2871 24.5952C17.5996 24.2826 17.7752 23.8587 17.7752 23.4167C17.7752 22.9746 17.5996 22.5507 17.2871 22.2382C16.9745 21.9256 16.5506 21.75 16.1086 21.75C15.6665 21.75 15.2426 21.9256 14.93 22.2382C14.6175 22.5507 14.4419 22.9746 14.4419 23.4167C14.4419 23.8587 14.6175 24.2826 14.93 24.5952C15.2426 24.9077 15.6665 25.0833 16.1086 25.0833Z" fill="black" fill-opacity="0.53"/>
</svg>