<svg xmlns="http://www.w3.org/2000/svg" width="29" height="28" viewBox="0 0 29 28" fill="none">
<path d="M25.2336 20.875H23.0367C22.8867 20.875 22.7461 20.9407 22.6524 21.0563C22.4336 21.3219 22.1992 21.5782 21.9524 21.8219C20.9426 22.8326 19.7466 23.6381 18.4305 24.1938C17.0669 24.7697 15.6013 25.0652 14.1211 25.0625C12.6242 25.0625 11.1742 24.7688 9.81173 24.1938C8.49557 23.6381 7.29956 22.8326 6.28986 21.8219C5.27834 20.8146 4.47178 19.6207 3.91486 18.3063C3.33673 16.9438 3.04611 15.4969 3.04611 14C3.04611 12.5032 3.33986 11.0563 3.91486 9.6938C4.47111 8.37817 5.2711 7.1938 6.28986 6.17817C7.30861 5.16255 8.49298 4.36255 9.81173 3.8063C11.1742 3.2313 12.6242 2.93755 14.1211 2.93755C15.618 2.93755 17.068 3.22817 18.4305 3.8063C19.7492 4.36255 20.9336 5.16255 21.9524 6.17817C22.1992 6.42505 22.4305 6.6813 22.6524 6.9438C22.7461 7.05942 22.8899 7.12505 23.0367 7.12505H25.2336C25.4305 7.12505 25.5524 6.9063 25.443 6.74067C23.0461 3.01567 18.8524 0.550047 14.0867 0.562547C6.59923 0.581297 0.596105 6.65942 0.671105 14.1375C0.746105 21.4969 6.73986 27.4375 14.1211 27.4375C18.8742 27.4375 23.0492 24.975 25.443 21.2594C25.5492 21.0938 25.4305 20.875 25.2336 20.875ZM28.0117 13.8032L23.5774 10.3032C23.4117 10.1719 23.1711 10.2907 23.1711 10.5V12.875H13.3586C13.2211 12.875 13.1086 12.9875 13.1086 13.125V14.875C13.1086 15.0125 13.2211 15.125 13.3586 15.125H23.1711V17.5C23.1711 17.7094 23.4149 17.8282 23.5774 17.6969L28.0117 14.1969C28.0416 14.1735 28.0658 14.1437 28.0824 14.1095C28.099 14.0754 28.1077 14.038 28.1077 14C28.1077 13.9621 28.099 13.9247 28.0824 13.8905C28.0658 13.8564 28.0416 13.8266 28.0117 13.8032Z" fill="black" fill-opacity="0.64"/>
</svg>