<svg xmlns="http://www.w3.org/2000/svg" width="25" height="24" viewBox="0 0 25 24" fill="none">
<path d="M24.1736 20.7495L19.4998 16.0766C19.2889 15.8656 19.0029 15.7485 18.7029 15.7485H17.9388C19.2326 14.0939 20.0014 12.0129 20.0014 9.74905C20.0014 4.36364 15.637 0 10.2507 0C4.86438 0 0.5 4.36364 0.5 9.74905C0.5 15.1345 4.86438 19.4981 10.2507 19.4981C12.5149 19.4981 14.5963 18.7294 16.2512 17.4358V18.1998C16.2512 18.4998 16.3683 18.7857 16.5793 18.9966L21.2531 23.6696C21.6937 24.1101 22.4063 24.1101 22.8423 23.6696L24.1689 22.3431C24.6096 21.9025 24.6096 21.1901 24.1736 20.7495ZM10.2507 15.7485C6.93641 15.7485 4.25027 13.0675 4.25027 9.74905C4.25027 6.43531 6.93172 3.74963 10.2507 3.74963C13.565 3.74963 16.2512 6.43062 16.2512 9.74905C16.2512 13.0628 13.5697 15.7485 10.2507 15.7485Z" fill="white"/>
</svg>