<svg xmlns="http://www.w3.org/2000/svg" width="27" height="28" viewBox="0 0 27 28" fill="none">
<path d="M23.0153 15.3067C23.0687 14.88 23.1087 14.4534 23.1087 14C23.1087 13.5467 23.0687 13.12 23.0153 12.6934L25.8287 10.4934C26.082 10.2934 26.1487 9.93335 25.9887 9.64002L23.322 5.02669C23.2434 4.88912 23.1184 4.78405 22.9693 4.73029C22.8203 4.67654 22.657 4.67763 22.5087 4.73336L19.1887 6.06669C18.4953 5.53336 17.7487 5.09336 16.9353 4.76002L16.4287 1.22669C16.4066 1.06981 16.3281 0.926369 16.2078 0.82327C16.0875 0.72017 15.9337 0.664496 15.7753 0.666688H10.442C10.1087 0.666688 9.82867 0.906688 9.78867 1.22669L9.28201 4.76002C8.46867 5.09336 7.72201 5.54669 7.02867 6.06669L3.70867 4.73336C3.63136 4.70713 3.55031 4.69362 3.46867 4.69336C3.24201 4.69336 3.01534 4.81335 2.89534 5.02669L0.228673 9.64002C0.0553392 9.93335 0.135339 10.2934 0.388673 10.4934L3.20201 12.6934C3.14867 13.12 3.10867 13.56 3.10867 14C3.10867 14.44 3.14867 14.88 3.20201 15.3067L0.388673 17.5067C0.135339 17.7067 0.0686726 18.0667 0.228673 18.36L2.89534 22.9734C2.97394 23.1109 3.09897 23.216 3.24801 23.2698C3.39705 23.3235 3.56036 23.3224 3.70867 23.2667L7.02867 21.9334C7.72201 22.4667 8.46867 22.9067 9.28201 23.24L9.78867 26.7734C9.82867 27.0934 10.1087 27.3334 10.442 27.3334H15.7753C16.1087 27.3334 16.3887 27.0934 16.4287 26.7734L16.9353 23.24C17.7487 22.9067 18.4953 22.4534 19.1887 21.9334L22.5087 23.2667C22.5887 23.2934 22.6687 23.3067 22.7487 23.3067C22.9753 23.3067 23.202 23.1867 23.322 22.9734L25.9887 18.36C26.1487 18.0667 26.082 17.7067 25.8287 17.5067L23.0153 15.3067ZM20.3753 13.0267C20.4287 13.44 20.442 13.72 20.442 14C20.442 14.28 20.4153 14.5734 20.3753 14.9734L20.1887 16.48L21.3753 17.4134L22.8153 18.5334L21.882 20.1467L20.1887 19.4667L18.802 18.9067L17.602 19.8134C17.0287 20.24 16.482 20.56 15.9353 20.7867L14.522 21.36L14.3087 22.8667L14.042 24.6667H12.1753L11.922 22.8667L11.7087 21.36L10.2953 20.7867C9.72201 20.5467 9.18867 20.24 8.65534 19.84L7.44201 18.9067L6.02867 19.48L4.33534 20.16L3.40201 18.5467L4.84201 17.4267L6.02867 16.4934L5.84201 14.9867C5.80201 14.5734 5.77534 14.2667 5.77534 14C5.77534 13.7334 5.80201 13.4267 5.84201 13.0267L6.02867 11.52L4.84201 10.5867L3.40201 9.46669L4.33534 7.85335L6.02867 8.53336L7.41534 9.09336L8.61534 8.18669C9.18867 7.76002 9.73534 7.44002 10.282 7.21336L11.6953 6.64002L11.9087 5.13336L12.1753 3.33335H14.0287L14.282 5.13336L14.4953 6.64002L15.9087 7.21336C16.482 7.45335 17.0153 7.76002 17.5487 8.16002L18.762 9.09336L20.1753 8.52002L21.8687 7.84002L22.802 9.45336L21.3753 10.5867L20.1887 11.52L20.3753 13.0267ZM13.1087 8.66669C10.162 8.66669 7.77534 11.0534 7.77534 14C7.77534 16.9467 10.162 19.3334 13.1087 19.3334C16.0553 19.3334 18.442 16.9467 18.442 14C18.442 11.0534 16.0553 8.66669 13.1087 8.66669ZM13.1087 16.6667C11.642 16.6667 10.442 15.4667 10.442 14C10.442 12.5334 11.642 11.3334 13.1087 11.3334C14.5753 11.3334 15.7753 12.5334 15.7753 14C15.7753 15.4667 14.5753 16.6667 13.1087 16.6667Z" fill="black" fill-opacity="0.48"/>
</svg>